<?xml version="1.0" encoding="UTF-8"?>
<svg id="Layer_1" data-name="Layer 1" xmlns="http://www.w3.org/2000/svg" viewBox="0 0 44.81 39.16">
  <defs>
    <style>
      .cls-1 {
        fill: #020202;
        stroke-width: 0px;
      }
    </style>
  </defs>
  <polygon class="cls-1" points="44.46 29.19 43.81 27.72 42.28 24.33 40.42 19.97 38.56 14.92 37.69 12.64 36.64 10.19 35.25 7.31 34.28 5.67 33.17 4.11 31.58 2.5 30.17 1.56 28.75 .94 27.19 .47 24.86 .14 22.11 0 25 .44 27.67 .94 28.92 1.42 30.58 2.25 31.86 3.28 33.06 4.61 33.92 6.06 34.92 7.67 36.58 11.17 37.56 13.67 38.97 17.17 40.14 20.22 42.53 25.58 43.47 27.72 44.81 30.33 44.46 29.19"/>
  <polygon class="cls-1" points=".34 29.19 1 27.72 2.53 24.33 4.39 19.97 6.25 14.92 7.11 12.64 8.17 10.19 9.56 7.31 10.53 5.67 11.64 4.11 13.22 2.5 14.64 1.56 16.06 .94 17.61 .47 19.94 .14 22.69 0 19.81 .44 17.14 .94 15.89 1.42 14.22 2.25 12.94 3.28 11.75 4.61 10.89 6.06 9.89 7.67 8.22 11.17 7.25 13.67 5.83 17.17 4.67 20.22 2.28 25.58 1.33 27.72 0 30.33 .34 29.19"/>
  <path class="cls-1" d="m23.58,15.73h-.29l-.28-.2v.35l.19.15-.19.11-.17-.15-.39-.24h-.15v.08l.17.18.13.13.09.19.13.11h-.22l-.3-.11-.19-.17-.29-.18-.07.32.09.26.17.17.1.24.14.22.13.17h-.27l-.36-.13-.15-.13-.17-.15-.28-.11-.26-.17v.41l.15.28.22.26.28.24.13.15.22.17.07.09h-.54l-.54-.2-.3-.19-.3-.17-.28-.26v.63l.24.41.19.2.19.37.15.15.35.43v.15l-.2-.09-.33-.22-.41-.26-.35-.31-.26-.2-.26-.26-.22-.26-.2-.35-.13-.02s-.07.31,0,.39.15.5.2.61.28.54.28.54l.24.28.2.41.28.3.17.19.19.15.09.24h-.22l-.39-.2-.33-.22-.37-.24-.37-.24v.22l-.12,1.37v4.3l.33,6.2.17,1.72.17,1.91.33,2.19.19.96-.04.17-.06.13h-.28l-.37-.28-.24-.35-.2-.46-.48-1.04-.44-1.2-.46-1.5-.22-.98-.33-1.3-.13-.72-.2-.81-.15-.8-.17-1.67-.11-.83-.17-1.67-.11-.94-.07-1.04-.22-.19-.2-.46-.22-.65-.09-.46-.17-.52-.15-.98-.15-.02v.8l.11.95.09.87.15.63.09.52.24.56.28.48.15.3.17.39v.11l-.26-.09-.28-.33-.44-.54-.3-.56-.31-.78-.22-.7-.19-.59-.13-.41-.07-.57-.07-.65-.05-.39v-.85l-.2.02-.09.57-.17.84-.09.52-.1.64-.05.3-.03.41-.06.4-.2-.14v-1.02l.03-1.03.07-.82.09-.68.04-.61.2-.83.3-.94.17-.57.19-.55.1-.22.02-.22-.17.11-.18.32-.44.89-.3.61s-.2.46-.22.52-.28.76-.28.76l-.15.43-.15-.02v-.41l.19-.76.26-.8.26-.65.19-.56.3-.54.22-.52.26-.54.26-.41.04-.19h-.13l-.37.39-.48.5-.48.63-.33.5-.28.46-.11.28-.09-.02v-.24l.14-.5.3-.58.52-1.03.46-.72.35-.59.63-.81.89-.91.96-.83.96-.56.9-.41.51-.13.67-.09h1.33l.61.11.74.22.69.24.69.24.59.17.29.02v5.65Z"/>
  <path class="cls-1" d="m23.58,15.73h.29s.28-.2.28-.2v.35l-.19.15.19.11.17-.15.39-.24h.15v.08l-.17.18-.13.13-.09.19-.13.11h.22s.3-.11.3-.11l.19-.17.29-.18.07.32-.09.26-.17.17-.1.24-.14.22-.13.17h.27s.36-.13.36-.13l.15-.13.17-.15.28-.11.26-.17v.41l-.15.28-.22.26-.28.24-.13.15-.22.17-.07.09h.54s.54-.2.54-.2l.3-.19.3-.17.28-.26v.63s-.24.41-.24.41l-.19.2-.19.37-.15.15-.35.43v.15s.2-.09.2-.09l.33-.22.41-.26.35-.31.26-.2.26-.26.22-.26.2-.35.13-.02s.07.31,0,.39-.15.5-.2.61-.28.54-.28.54l-.24.28-.2.41-.28.3-.17.19-.19.15-.09.24h.22s.39-.2.39-.2l.33-.22.37-.24.37-.24v.22s.12,1.37.12,1.37v1.89s0,2.41,0,2.41l-.33,6.2-.17,1.72-.17,1.91-.33,2.19-.19.96.04.17.06.13h.28s.37-.28.37-.28l.24-.35.2-.46.48-1.04.44-1.2.46-1.5.22-.98.33-1.3.13-.72.2-.81.15-.8.17-1.67.11-.83.17-1.67.11-.94.07-1.04.22-.19.2-.46.22-.65.09-.46.17-.52.15-.98.15-.02v.8s-.11.95-.11.95l-.09.87-.15.63-.09.52-.24.56-.28.48-.15.3-.17.39v.11s.26-.09.26-.09l.28-.33.44-.54.3-.56.31-.78.22-.7.19-.59.13-.41.07-.57.07-.65.05-.39v-.85l.2.02.09.57.17.84.09.52.1.64.05.3.03.41.06.4.2-.14v-1.02s-.03-1.03-.03-1.03l-.07-.82-.09-.68-.04-.61-.2-.83-.3-.94-.17-.57-.19-.55-.1-.22-.02-.22.17.11.18.32.44.89.3.61s.2.46.22.52.28.76.28.76l.15.43.15-.02v-.41s-.19-.76-.19-.76l-.26-.8-.26-.65-.19-.56-.3-.54-.22-.52-.26-.54-.26-.41-.04-.19h.13l.37.39.48.5.48.63.33.5.28.46.11.28.09-.02v-.24s-.14-.5-.14-.5l-.3-.58-.52-1.03-.46-.72-.35-.59-.63-.81-.89-.91-.96-.83-.96-.56-.9-.41-.51-.13-.67-.09h-1.33s-.61.11-.61.11l-.74.22-.69.24-.69.24-.59.17-.29.02v5.65Z"/>
  <ellipse class="cls-1" cx="29.53" cy="6.68" rx="1.33" ry="1.04"/>
  <ellipse class="cls-1" cx="17.57" cy="6.57" rx="1.33" ry="1.04"/>
  <ellipse class="cls-1" cx="23.57" cy="9.22" rx="2.25" ry="1.04"/>
</svg>